<mxfile host="65bd71144e">
    <diagram id="WOSX3Y03QqJv7ECEEG_z" name="Page-1">
        <mxGraphModel dx="662" dy="513" grid="1" gridSize="10" guides="1" tooltips="1" connect="1" arrows="1" fold="1" page="1" pageScale="1" pageWidth="850" pageHeight="1100" math="0" shadow="0">
            <root>
                <mxCell id="0"/>
                <mxCell id="1" parent="0"/>
                <mxCell id="2" value="inicio" style="ellipse;whiteSpace=wrap;html=1;" vertex="1" parent="1">
                    <mxGeometry x="280" y="220" width="120" height="80" as="geometry"/>
                </mxCell>
                <mxCell id="3" style="edgeStyle=none;html=1;entryX=0.5;entryY=0;entryDx=0;entryDy=0;" edge="1" parent="1" source="4" target="6">
                    <mxGeometry relative="1" as="geometry"/>
                </mxCell>
                <mxCell id="4" value="float totalc&lt;div&gt;float random&lt;/div&gt;" style="rounded=0;whiteSpace=wrap;html=1;" vertex="1" parent="1">
                    <mxGeometry x="280" y="320" width="120" height="60" as="geometry"/>
                </mxCell>
                <mxCell id="5" style="edgeStyle=none;html=1;entryX=0.5;entryY=0;entryDx=0;entryDy=0;" edge="1" parent="1" source="6" target="9">
                    <mxGeometry relative="1" as="geometry">
                        <mxPoint x="340" y="520" as="targetPoint"/>
                    </mxGeometry>
                </mxCell>
                <mxCell id="6" value="totalc&lt;div&gt;&quot;numero al azar del 1 al 100&quot;, random&lt;/div&gt;" style="shape=parallelogram;perimeter=parallelogramPerimeter;whiteSpace=wrap;html=1;fixedSize=1;" vertex="1" parent="1">
                    <mxGeometry x="280" y="420" width="120" height="60" as="geometry"/>
                </mxCell>
                <mxCell id="7" style="edgeStyle=none;html=1;entryX=0.5;entryY=0;entryDx=0;entryDy=0;" edge="1" parent="1" target="11">
                    <mxGeometry relative="1" as="geometry">
                        <mxPoint x="560" y="672" as="targetPoint"/>
                        <mxPoint x="415" y="636.5" as="sourcePoint"/>
                        <Array as="points">
                            <mxPoint x="560" y="637"/>
                        </Array>
                    </mxGeometry>
                </mxCell>
                <mxCell id="8" style="edgeStyle=none;html=1;entryX=0.5;entryY=0;entryDx=0;entryDy=0;" edge="1" parent="1" source="9" target="15">
                    <mxGeometry relative="1" as="geometry">
                        <Array as="points">
                            <mxPoint x="140" y="632"/>
                        </Array>
                    </mxGeometry>
                </mxCell>
                <mxCell id="9" value="numero &lt; 74" style="rhombus;whiteSpace=wrap;" vertex="1" parent="1">
                    <mxGeometry x="270" y="572" width="140" height="130" as="geometry"/>
                </mxCell>
                <mxCell id="10" style="edgeStyle=none;html=1;" edge="1" parent="1" source="11">
                    <mxGeometry relative="1" as="geometry">
                        <mxPoint x="340" y="790" as="targetPoint"/>
                        <Array as="points">
                            <mxPoint x="560" y="790"/>
                        </Array>
                    </mxGeometry>
                </mxCell>
                <mxCell id="11" value="desc = totalc * 0.15" style="rounded=0;whiteSpace=wrap;" vertex="1" parent="1">
                    <mxGeometry x="500" y="682" width="120" height="60" as="geometry"/>
                </mxCell>
                <mxCell id="12" value="si" style="text;html=1;align=center;verticalAlign=middle;resizable=0;points=[];autosize=1;strokeColor=none;fillColor=none;" vertex="1" parent="1">
                    <mxGeometry x="385" y="570" width="30" height="30" as="geometry"/>
                </mxCell>
                <mxCell id="13" style="edgeStyle=none;html=1;entryX=0.45;entryY=-0.033;entryDx=0;entryDy=0;entryPerimeter=0;" edge="1" parent="1" source="2" target="4">
                    <mxGeometry relative="1" as="geometry"/>
                </mxCell>
                <mxCell id="14" style="edgeStyle=none;html=1;" edge="1" parent="1" source="15">
                    <mxGeometry relative="1" as="geometry">
                        <mxPoint x="340" y="790" as="targetPoint"/>
                        <Array as="points">
                            <mxPoint x="150" y="790"/>
                        </Array>
                    </mxGeometry>
                </mxCell>
                <mxCell id="15" value="desc = totalc * 0.20" style="rounded=0;whiteSpace=wrap;" vertex="1" parent="1">
                    <mxGeometry x="90" y="662" width="120" height="60" as="geometry"/>
                </mxCell>
                <mxCell id="16" style="edgeStyle=none;html=1;" edge="1" parent="1" source="17">
                    <mxGeometry relative="1" as="geometry">
                        <mxPoint x="350" y="1050" as="targetPoint"/>
                    </mxGeometry>
                </mxCell>
                <mxCell id="17" value="&quot;Descuento aplicado: &quot;, desc&#xa;&#xa;&quot;Total a pagar: $&quot;, totdesc" style="shape=document;whiteSpace=wrap;boundedLbl=1;textShadow=0;" vertex="1" parent="1">
                    <mxGeometry x="260" y="910" width="180" height="90" as="geometry"/>
                </mxCell>
                <mxCell id="18" value="" style="endArrow=classic;html=1;entryX=0.5;entryY=0;entryDx=0;entryDy=0;" edge="1" parent="1" target="17">
                    <mxGeometry width="50" height="50" relative="1" as="geometry">
                        <mxPoint x="350" y="862" as="sourcePoint"/>
                        <mxPoint x="400" y="812" as="targetPoint"/>
                    </mxGeometry>
                </mxCell>
                <mxCell id="19" value="FIN" style="ellipse;whiteSpace=wrap;html=1;" vertex="1" parent="1">
                    <mxGeometry x="295" y="1050" width="120" height="80" as="geometry"/>
                </mxCell>
                <mxCell id="22" style="edgeStyle=none;html=1;" edge="1" parent="1" source="21">
                    <mxGeometry relative="1" as="geometry">
                        <mxPoint x="350" y="780" as="targetPoint"/>
                    </mxGeometry>
                </mxCell>
                <mxCell id="21" value="totdesc = totalc - desc" style="rounded=0;whiteSpace=wrap;" vertex="1" parent="1">
                    <mxGeometry x="290" y="800" width="120" height="60" as="geometry"/>
                </mxCell>
            </root>
        </mxGraphModel>
    </diagram>
</mxfile>